<svg width="53" height="39" viewBox="0 0 53 39" fill="none" xmlns="http://www.w3.org/2000/svg">
<path d="M2.46482 0C1.09896 0 0 1.0872 0 2.43724V27.7077L17.1787 16.0541C17.3383 15.9436 17.5249 15.8712 17.718 15.8445C18.0454 15.8063 18.387 15.9049 18.6427 16.1109L30.872 25.8993L39.9812 19.7102C40.4138 19.4197 41.037 19.4438 41.4447 19.7675L53 28.908V2.43823C53 1.08765 51.9005 0.00099153 50.5352 0.00099153L2.46482 0ZM30.814 8.53129C32.8559 8.53129 34.5116 10.1684 34.5116 12.1875C34.5116 14.2065 32.8559 15.8436 30.814 15.8436C28.7721 15.8436 27.1164 14.2065 27.1164 12.1875C27.1164 10.1684 28.7721 8.53129 30.814 8.53129ZM17.8145 18.5669L0.000782346 30.6402V36.5628C0.000782346 37.9128 1.10029 39 2.4656 39H50.5349C51.9008 39 52.9997 37.9128 52.9997 36.5628V32.0304L40.597 22.223L31.5071 28.412C31.0745 28.7025 30.4513 28.6784 30.0436 28.3547L17.8142 18.5664L17.8145 18.5669Z" fill="#C8C8C8"/>
</svg>
